<svg xmlns="http://www.w3.org/2000/svg" width="84" height="40" viewBox="0 0 84 40">
    <g fill="#FFF" fill-rule="evenodd">
        <path d="M53.166 22.104c.21.318.498.463.907.473.554.014.909-.53.909-.53l9.195-11.782c.76-.792 1.508-.152 1.508-.152.727.76.184 1.454.184 1.454l-2.056 2.631v.014a1.011 1.011 0 0 0-.043 1.36v.004l2.069 2.622 6.517-8.29-2.604-3.32-.481-.625c-.424-.608-1.367-.749-1.367-.749H64c-1.034 0-1.598.716-1.598.716l-10.93 14.026 1.693 2.148zM52.703 14.914l-2.615-3.352c-.532-.857.244-1.471.244-1.471.977-.57 1.543.31 1.543.31l2.162 2.777 2.56-3.298-2.95-3.798c-.705-1.009-1.78-.868-1.78-.868h-3.526c-1.128 0-1.613.702-1.613.702l-3.117 3.957 6.517 8.325 2.575-3.284z"/>
        <path d="M62.78 17.772s-.301-.465-.88-.456c-.605.009-.848.41-.848.41l-9.29 11.93c-.752.828-1.562.162-1.562.162-.727-.76-.13-1.464-.13-1.464l2.083-2.676v-.014a1.009 1.009 0 0 0 .043-1.36V24.3l-2.068-2.622-6.54 8.383 3.647 4.615 5.728.014 11.522-14.736-1.705-2.182zM63.26 24.961l2.637 3.393c.607.842-.16 1.464-.16 1.464-1.012.68-1.63-.336-1.63-.336L61.9 26.68l-2.56 3.299 3.692 4.726 5.686-.015 3.645-4.672-6.531-8.344-2.572 3.287zM72.315 21.373c-.767 0-1.391-.63-1.391-1.403a1.4 1.4 0 0 1 1.39-1.404c.767 0 1.391.63 1.391 1.404 0 .774-.624 1.403-1.39 1.403m0-4.013c-1.458 0-2.644 1.171-2.644 2.61 0 1.439 1.186 2.61 2.644 2.61 1.458 0 2.644-1.171 2.644-2.61 0-1.439-1.186-2.61-2.644-2.61M57.967 1.206c.767 0 1.39.63 1.39 1.403 0 .774-.623 1.404-1.39 1.404-.766 0-1.39-.63-1.39-1.404 0-.773.624-1.403 1.39-1.403m0 4.013c1.458 0 2.644-1.17 2.644-2.61C60.61 1.171 59.425 0 57.967 0c-1.458 0-2.643 1.171-2.643 2.61 0 1.438 1.185 2.61 2.643 2.61M42.191 19.96c0-.774.624-1.403 1.39-1.403.767 0 1.391.629 1.391 1.403s-.624 1.403-1.39 1.403c-.767 0-1.39-.63-1.39-1.403m4.033 0c0-1.44-1.186-2.61-2.643-2.61-1.458 0-2.644 1.17-2.644 2.61 0 1.438 1.186 2.61 2.644 2.61 1.457 0 2.643-1.172 2.643-2.61M57.97 38.719c-.766 0-1.39-.63-1.39-1.403 0-.775.624-1.404 1.39-1.404.767 0 1.39.63 1.39 1.404 0 .774-.623 1.403-1.39 1.403m0-4.013c-1.457 0-2.643 1.17-2.643 2.61 0 1.438 1.186 2.609 2.644 2.609 1.458 0 2.644-1.17 2.644-2.61 0-1.439-1.186-2.609-2.644-2.609M30.374 2.593H0v20.255c0 11.117 15.18 14.467 15.18 14.467h.014s15.18-3.35 15.18-14.467V2.593zm-.74.74v19.515c0 2.365-.744 4.548-2.21 6.489-1.196 1.582-2.872 3.014-4.983 4.258-3.234 1.904-6.519 2.78-7.255 2.962-.732-.18-3.99-1.048-7.221-2.944-2.12-1.244-3.804-2.678-5.004-4.261C1.487 27.407.74 25.219.74 22.848V3.333h28.895z"/>
        <path d="M18.865 9.076V7.217h-1.913v1.736h-.747V7.217h-1.97v1.736h-.748V7.217h-1.944v1.861l.948 1.63c.034.058.05.123.05.188l.01 8.519h.918l-.008-3.06c0-.722.82-1.377 1.722-1.377.901 0 1.722.655 1.722 1.376l.01 3.06h.943l-.002-3.23a.237.237 0 0 1-.004-.044v-1.602c0-.008 0-.016.002-.024l-.001-1.165-.001-.007v-.509l-.002-1.936c0-.066.018-.132.052-.19l.963-1.63zM11.803 19.613L11.8 16.79l-.34.204a.373.373 0 0 1-.403-.011l-.41-.28a.213.213 0 0 1 .002.035l-.015 1.088a.372.372 0 0 1-.143.289.379.379 0 0 1 .118.063c.498.4.534.97.427 1.435h.767z"/>
        <path d="M15.183 15.724c-.574 0-.976.409-.976.63l.01 3.06h1.95l-.01-3.06c0-.221-.402-.63-.974-.63"/>
        <path d="M3.797 19.613a3.41 3.41 0 0 1-.24-.859 6.596 6.596 0 0 1-.074-1.154.373.373 0 0 1 .264-.343l.816-.252-.922-.653a.372.372 0 0 1-.158-.305v-1.035c0-.138.078-.266.202-.33l.359-.188v-.352l-.328-.133a.374.374 0 0 1-.233-.346l-.001-1.244c-.001-.205.164-.372.37-.374l1.153-.01c-.021-.306-.027-.723.048-1.068.099-.467.364-.974.491-1.2l-.06-.431a.37.37 0 0 1 .37-.426h.62c.071 0 .14.02.2.058l1.52.963h.698a.376.376 0 0 1 .374.39l-.054 1.197a.37.37 0 0 1-.121.26l.465.001c.1 0 .198.041.268.114l.212.22.16-.122.27-.569a.372.372 0 0 1 .337-.213h.992v-.211l-.949-1.632a.373.373 0 0 1-.05-.187V6.843c0-.206.166-.373.373-.373h8.07c.206 0 .374.167.374.373V9.18a.382.382 0 0 1-.052.19l-.963 1.63v.21h.983c.144 0 .276.082.338.213l.27.569.16.123.212-.22a.373.373 0 0 1 .268-.115l.465-.002a.372.372 0 0 1-.122-.259l-.053-1.197a.377.377 0 0 1 .374-.39h.698l1.519-.963a.374.374 0 0 1 .2-.058h.622a.374.374 0 0 1 .37.426l-.062.432c.127.225.393.732.492 1.199.074.345.069.762.048 1.068l1.152.01a.374.374 0 0 1 .37.374v1.244a.373.373 0 0 1-.234.346l-.328.133v.352l.36.187c.124.065.201.193.201.331v1.035a.371.371 0 0 1-.158.305l-.921.653.816.252a.373.373 0 0 1 .263.343c0 .023.02.565-.074 1.154a3.411 3.411 0 0 1-.24.859h1.36l.017.002V5.18H2.444v14.434h1.353z"/>
        <path d="M19.775 18.178a.39.39 0 0 1 .119-.063.374.374 0 0 1-.144-.29l-.014-1.087.001-.035-.409.28a.375.375 0 0 1-.404.011l-.321-.193.003 2.812h.741c-.106-.465-.07-1.036.428-1.435M24.736 27.332a.373.373 0 0 1-.373-.373v-2.441c0-.181-.11-.407-.28-.573a1.031 1.031 0 0 0-.767-.3c-.572.01-.916.453-.964.892v2.422a.374.374 0 0 1-.373.373h-2.22a.373.373 0 0 1-.374-.373v-2.441c0-.181-.11-.407-.279-.573a1.033 1.033 0 0 0-.767-.3.96.96 0 0 0-.649.258l1.826 9.31c2.569-1.14 5.61-2.997 7.253-5.88h-2.033zM18.8 33.443l-2.566-13.082h-2.083L11.59 33.449a.38.38 0 0 1-.015.052c1.781.73 3.227 1.103 3.63 1.23.41-.13 1.846-.498 3.615-1.223a.422.422 0 0 1-.02-.065M12.699 23.89a.96.96 0 0 0-.634-.243h-.02a1.04 1.04 0 0 0-.747.299c-.17.167-.278.391-.278.573v2.441a.374.374 0 0 1-.374.374h-2.22a.373.373 0 0 1-.374-.374v-2.422c-.048-.439-.391-.882-.964-.89l-.021-.001a1.04 1.04 0 0 0-.747.299c-.17.167-.279.391-.279.573v2.441a.373.373 0 0 1-.373.374H3.643c1.638 2.874 4.67 4.729 7.233 5.87l1.823-9.313z"/>
        <path d="M27.947 20.36H16.996l.538 2.743c.24-.128.51-.2.793-.204.492-.01.959.174 1.303.513.315.31.502.723.502 1.106v2.067h1.473v-2.067l.001-.034a1.738 1.738 0 0 1 1.699-1.585c.497-.01.958.174 1.303.513.314.31.502.723.502 1.106v2.067h2.04a9.054 9.054 0 0 0 .814-3.8v-2.427l-.017.002M5.294 26.586V24.52c0-.383.188-.797.502-1.106.345-.339.809-.52 1.304-.513a1.737 1.737 0 0 1 1.699 1.619v2.067h1.473V24.52c0-.383.187-.797.502-1.106a1.806 1.806 0 0 1 2.08-.316l.536-2.737H2.443v2.425c0 1.42.304 2.68.816 3.801h2.035zM6.173 18.843h.606a.658.658 0 0 1 .085.252c.002.05.004.1.009.152-.001.13-.025.26-.05.366H4.7c-.306-.209-.46-1.04-.473-1.722l.929-.287a.374.374 0 0 0 .263-.357v-.358a.375.375 0 0 0-.158-.305l-1.032-.73v-.615l.36-.187a.374.374 0 0 0 .201-.332v-.83a.373.373 0 0 0-.232-.346l-.33-.133v-.622l.98-.01.465.763.003 1.064-.32 1.009a.375.375 0 0 0 .357.486h.282a.373.373 0 0 0 .369-.313c.027-.166.115-.643.199-.858.065-.167.33-.525.5-.726a.374.374 0 0 0-.006-.485l-1.284-1.474c-.025-.222-.07-.748.009-1.121.086-.406.367-.921.468-1.085a.377.377 0 0 0 .052-.248l-.02-.134h.083l1.52.963c.06.038.129.058.2.058h.416l-.025.558-.49.178a.374.374 0 0 0-.246.353l.002.384c.002.205.169.37.373.37l1.28.004.333.347a.374.374 0 0 0 .496.038s.582-.464.607-.517l.208-.437h.746V13.316s-1.364.467-1.477.523c-.089.044-.138.467-.122.568.015.102.01.142.156.251 0 0 .398.312.519.356l.397-.379.525.035-.001 1.26-.502.3-1.566-1.072a.374.374 0 0 0-.506.078l-.245.315a.373.373 0 0 0 .039.502l.896.84-.01.683-.899.4a.374.374 0 0 0-.221.342v.152c0 .206.167.373.374.373h1.082c.186.233.113.56.033.77H7.765c-.084-.089-.128-.246-.145-.42a1.914 1.914 0 0 0-.01-.145 2.729 2.729 0 0 1 .057-.624l.58-.742a.381.381 0 0 0 .079-.213l.017-.356a.374.374 0 0 0-.514-.364l-.937.383a.375.375 0 0 0-.229.29l-.055.375-.543.164a.374.374 0 0 0-.266.358v.151c0 .206.167.373.374.373M24.212 18.843h-.605a.64.64 0 0 0-.086.252c-.001.05-.005.1-.01.152.002.13.025.26.05.366h2.123c.306-.209.459-1.04.472-1.722l-.928-.287a.374.374 0 0 1-.264-.357v-.358c0-.122.06-.235.158-.305l1.033-.73v-.615l-.361-.187a.374.374 0 0 1-.2-.332v-.83c0-.152.091-.29.233-.346l.328-.133v-.622l-.98-.01-.464.763-.004 1.064.32 1.009a.377.377 0 0 1-.054.334.376.376 0 0 1-.301.152h-.284a.373.373 0 0 1-.368-.313c-.027-.166-.116-.643-.2-.858-.064-.167-.33-.525-.499-.726a.374.374 0 0 1 .005-.485l1.285-1.474c.025-.222.07-.748-.01-1.121-.086-.406-.366-.921-.468-1.085a.373.373 0 0 1-.05-.248l.018-.134h-.083l-1.519.963a.373.373 0 0 1-.2.058h-.416l.025.558.49.178a.374.374 0 0 1 .246.353l-.003.384a.374.374 0 0 1-.372.37l-1.28.004-.333.347a.374.374 0 0 1-.497.038s-.582-.464-.607-.517l-.207-.437H18.6V13.316s1.363.467 1.475.523c.09.044.14.467.123.568-.015.102-.01.142-.157.251 0 0-.397.312-.518.356l-.397-.379-.524.035v1.26l.502.3 1.566-1.072a.374.374 0 0 1 .506.078l.245.315c.12.152.103.37-.038.502l-.898.84.01.683.9.4c.134.06.22.194.22.342v.152a.373.373 0 0 1-.372.373H20.16c-.186.233-.113.56-.034.77h2.493c.085-.089.13-.246.146-.42.001-.049.005-.097.01-.145a2.752 2.752 0 0 0-.057-.624l-.58-.742a.381.381 0 0 1-.079-.213l-.017-.356a.374.374 0 0 1 .515-.364l.936.383c.122.05.209.16.229.29l.055.375.543.164a.374.374 0 0 1 .265.358v.151a.373.373 0 0 1-.373.373M82.972 34.706h.557V5.215h-.557z"/>
    </g>
</svg>
